# xmcd CD database file
#
# Track frame offsets:
#	150
#	29677
#	45812
#	64657
#	84657
#	108729
#	124372
#	141940
#	178872
#	194087
#
# Disc length: 2826 seconds
#
# Revision: 0
# Processed by: cddbd v1.4PL0 Copyright (c) Steve Scherf et al.
# Submitted via: CDex 1.50
#
DISCID=970b080a
DTITLE=Lee Konitz - Tenorlee
DYEAR=1996
DGENRE=Jazz
TTITLE0=I remember you
TTITLE1=Skylark
TTITLE2=Thanks for memory
TTITLE3=you are too beautiful
TTITLE4=Handful of stars
TTITLE5=Autum nocturne
TTITLE6=Tenorlee
TTITLE7=Lady be good
TTITLE8=The gypsy
TTITLE9='tis autumn
EXTD=YEAR: 1996
EXTT0=
EXTT1=
EXTT2=
EXTT3=
EXTT4=
EXTT5=
EXTT6=
EXTT7=
EXTT8=
EXTT9=
PLAYORDER=
